<svg width="32" height="45" viewBox="0 0 361 512" fill="none" xmlns="http://www.w3.org/2000/svg">
<path d="M1.56585 206C26.3767 359 180.066 512 180.066 512C180.066 512 343.066 337 358.566 206C371.566 142.5 331.066 4 180.066 0C18.5658 6.99999 -7.43414 150.5 1.56585 206Z" fill="#4C494E"/>
<path d="M315 180.5C315 255.335 254.335 316 179.5 316C104.665 316 44 255.335 44 180.5C44 105.665 104.665 45 179.5 45C254.335 45 315 105.665 315 180.5Z" fill="white"/>
<path d="M184.735 104.095C199.358 104.095 211.043 107.922 219.79 115.575C228.673 123.228 233.115 134.025 233.115 147.965C233.115 160.812 228.878 170.857 220.405 178.1C212.068 185.207 200.998 188.828 187.195 188.965L186.17 204.34H155.42L154.395 166.21H166.695C177.218 166.21 185.213 164.912 190.68 162.315C196.283 159.718 199.085 155.003 199.085 148.17C199.085 143.387 197.787 139.628 195.19 136.895C192.593 134.162 188.972 132.795 184.325 132.795C179.405 132.795 175.578 134.23 172.845 137.1C170.112 139.833 168.745 143.592 168.745 148.375H135.74C135.467 140.038 137.175 132.522 140.865 125.825C144.692 119.128 150.295 113.867 157.675 110.04C165.192 106.077 174.212 104.095 184.735 104.095ZM171.205 257.64C165.055 257.64 159.998 255.863 156.035 252.31C152.208 248.62 150.295 244.11 150.295 238.78C150.295 233.313 152.208 228.735 156.035 225.045C159.998 221.355 165.055 219.51 171.205 219.51C177.218 219.51 182.138 221.355 185.965 225.045C189.928 228.735 191.91 233.313 191.91 238.78C191.91 244.11 189.928 248.62 185.965 252.31C182.138 255.863 177.218 257.64 171.205 257.64Z" fill="#4C494E"/>
</svg>
