<svg width="25" height="24" viewBox="0 0 25 24" fill="none" xmlns="http://www.w3.org/2000/svg">
<g clip-path="url(#clip0_2_1314)">
<path d="M12.6665 15C14.3234 15 15.6665 13.6569 15.6665 12C15.6665 10.3431 14.3234 9 12.6665 9C11.0096 9 9.6665 10.3431 9.6665 12C9.6665 13.6569 11.0096 15 12.6665 15Z" stroke="black" stroke-width="2" stroke-linecap="round" stroke-linejoin="round"/>
<path d="M20.0665 15C19.9334 15.3016 19.8937 15.6362 19.9525 15.9606C20.0113 16.285 20.166 16.5843 20.3965 16.82L20.4565 16.88C20.6425 17.0657 20.79 17.2863 20.8906 17.5291C20.9913 17.7719 21.0431 18.0322 21.0431 18.295C21.0431 18.5578 20.9913 18.8181 20.8906 19.0609C20.79 19.3037 20.6425 19.5243 20.4565 19.71C20.2708 19.896 20.0502 20.0435 19.8074 20.1441C19.5646 20.2448 19.3043 20.2966 19.0415 20.2966C18.7787 20.2966 18.5184 20.2448 18.2756 20.1441C18.0328 20.0435 17.8122 19.896 17.6265 19.71L17.5665 19.65C17.3308 19.4195 17.0315 19.2648 16.7071 19.206C16.3827 19.1472 16.0481 19.1869 15.7465 19.32C15.4507 19.4468 15.1985 19.6572 15.0208 19.9255C14.8431 20.1938 14.7478 20.5082 14.7465 20.83V21C14.7465 21.5304 14.5358 22.0391 14.1607 22.4142C13.7856 22.7893 13.2769 23 12.7465 23C12.2161 23 11.7074 22.7893 11.3323 22.4142C10.9572 22.0391 10.7465 21.5304 10.7465 21V20.91C10.7388 20.579 10.6316 20.258 10.439 19.9887C10.2464 19.7194 9.97724 19.5143 9.6665 19.4C9.36489 19.2669 9.03031 19.2272 8.70592 19.286C8.38152 19.3448 8.08218 19.4995 7.8465 19.73L7.7865 19.79C7.60076 19.976 7.38018 20.1235 7.13738 20.2241C6.89459 20.3248 6.63433 20.3766 6.3715 20.3766C6.10867 20.3766 5.84842 20.3248 5.60562 20.2241C5.36283 20.1235 5.14225 19.976 4.9565 19.79C4.77055 19.6043 4.62303 19.3837 4.52238 19.1409C4.42174 18.8981 4.36993 18.6378 4.36993 18.375C4.36993 18.1122 4.42174 17.8519 4.52238 17.6091C4.62303 17.3663 4.77055 17.1457 4.9565 16.96L5.0165 16.9C5.24704 16.6643 5.40169 16.365 5.46051 16.0406C5.51933 15.7162 5.47962 15.3816 5.3465 15.08C5.21974 14.7842 5.00926 14.532 4.74097 14.3543C4.47268 14.1766 4.15829 14.0813 3.8365 14.08H3.6665C3.13607 14.08 2.62736 13.8693 2.25229 13.4942C1.87722 13.1191 1.6665 12.6104 1.6665 12.08C1.6665 11.5496 1.87722 11.0409 2.25229 10.6658C2.62736 10.2907 3.13607 10.08 3.6665 10.08H3.7565C4.0875 10.0723 4.40851 9.96512 4.6778 9.77251C4.9471 9.5799 5.15222 9.31074 5.2665 9C5.39962 8.69838 5.43933 8.36381 5.38051 8.03941C5.32169 7.71502 5.16704 7.41568 4.9365 7.18L4.8765 7.12C4.69055 6.93425 4.54303 6.71368 4.44238 6.47088C4.34174 6.22808 4.28993 5.96783 4.28993 5.705C4.28993 5.44217 4.34174 5.18192 4.44238 4.93912C4.54303 4.69632 4.69055 4.47575 4.8765 4.29C5.06225 4.10405 5.28283 3.95653 5.52562 3.85588C5.76842 3.75523 6.02867 3.70343 6.2915 3.70343C6.55433 3.70343 6.81459 3.75523 7.05738 3.85588C7.30018 3.95653 7.52076 4.10405 7.7065 4.29L7.7665 4.35C8.00218 4.58054 8.30152 4.73519 8.62592 4.794C8.95031 4.85282 9.28489 4.81312 9.5865 4.68H9.6665C9.96227 4.55324 10.2145 4.34276 10.3922 4.07447C10.5699 3.80618 10.6652 3.49179 10.6665 3.17V3C10.6665 2.46957 10.8772 1.96086 11.2523 1.58579C11.6274 1.21071 12.1361 1 12.6665 1C13.1969 1 13.7056 1.21071 14.0807 1.58579C14.4558 1.96086 14.6665 2.46957 14.6665 3V3.09C14.6678 3.41179 14.7631 3.72618 14.9408 3.99447C15.1185 4.26276 15.3707 4.47324 15.6665 4.6C15.9681 4.73312 16.3027 4.77282 16.6271 4.714C16.9515 4.65519 17.2508 4.50054 17.4865 4.27L17.5465 4.21C17.7322 4.02405 17.9528 3.87653 18.1956 3.77588C18.4384 3.67523 18.6987 3.62343 18.9615 3.62343C19.2243 3.62343 19.4846 3.67523 19.7274 3.77588C19.9702 3.87653 20.1908 4.02405 20.3765 4.21C20.5625 4.39575 20.71 4.61632 20.8106 4.85912C20.9113 5.10192 20.9631 5.36217 20.9631 5.625C20.9631 5.88783 20.9113 6.14808 20.8106 6.39088C20.71 6.63368 20.5625 6.85425 20.3765 7.04L20.3165 7.1C20.086 7.33568 19.9313 7.63502 19.8725 7.95941C19.8137 8.28381 19.8534 8.61838 19.9865 8.92V9C20.1133 9.29577 20.3237 9.54802 20.592 9.72569C20.8603 9.90337 21.1747 9.99872 21.4965 10H21.6665C22.1969 10 22.7056 10.2107 23.0807 10.5858C23.4558 10.9609 23.6665 11.4696 23.6665 12C23.6665 12.5304 23.4558 13.0391 23.0807 13.4142C22.7056 13.7893 22.1969 14 21.6665 14H21.5765C21.2547 14.0013 20.9403 14.0966 20.672 14.2743C20.4037 14.452 20.1933 14.7042 20.0665 15Z" stroke="black" stroke-width="2" stroke-linecap="round" stroke-linejoin="round"/>
</g>
<defs>
<clipPath id="clip0_2_1314">
<rect width="24" height="24" fill="white" transform="translate(0.666504)"/>
</clipPath>
</defs>
</svg>
